<?xml version="1.0" encoding="UTF-8"?>
<svg id="Ebene_1" xmlns="http://www.w3.org/2000/svg" version="1.1" viewBox="0 0 16 16">
	<!-- Generator: Adobe Illustrator 30.2.1, SVG Export Plug-In . SVG Version: 2.1.1 Build 1)  -->
	<defs>
		<style>
			.st0 {
			fill: #25324d;
			}

			.st1, .st2 {
			fill: #548af7;
			}

			.st2 {
			fill-rule: evenodd;
			}
		</style>
	</defs>
	<path class="st0"
	      d="M11.88,12h-.38c-.83,0-1.5-.67-1.5-1.5s.67-1.5,1.5-1.5h2v-5c0-.83-.67-1.5-1.5-1.5H4c-.83,0-1.5.67-1.5,1.5v8c0,.83.67,1.5,1.5,1.5h6.38l1.5-1.5Z"/>
	<path class="st1"
	      d="M10.88,13h-6.88c-.55,0-1-.45-1-1V4c0-.55.45-1,1-1h8c.55,0,1,.45,1,1v5h1v-5c0-1.1-.9-2-2-2H4c-1.1,0-2,.9-2,2v8c0,1.1.9,2,2,2h5.88l1-1Z"/>
	<path class="st1" d="M5.22,4.5h5.56v1.14h-2.16v5.86h-1.23v-5.86h-2.17v-1.14Z"/>
	<path class="st2"
	      d="M11,10.5c0-.28.22-.5.5-.5h4c.28,0,.5.22.5.5v4c0,.28-.22.5-.5.5s-.5-.22-.5-.5v-2.79l-4.15,4.15c-.2.2-.51.2-.71,0-.2-.2-.2-.51,0-.71l4.15-4.15h-2.79c-.28,0-.5-.22-.5-.5Z"/>
</svg>