<?xml version="1.0" encoding="UTF-8"?>
<svg id="Ebene_1" xmlns="http://www.w3.org/2000/svg" version="1.1" viewBox="0 0 16 16">
  <!-- Generator: Adobe Illustrator 30.2.1, SVG Export Plug-In . SVG Version: 2.1.1 Build 1)  -->
  <defs>
    <style>
      .st0 {
        fill: #208a3c;
      }

      .st1 {
        fill: #f5f8fe;
      }

      .st2 {
        fill: #3574f0;
      }
    </style>
  </defs>
  <path class="st1" d="M4,13.5h5.2c1.3-.54,2.37-1.26,3.21-2.2-.14-.17-.23-.38-.23-.61-.01-.37.18-.72.5-.9l.82-.47v-5.32c0-.83-.67-1.5-1.5-1.5H4c-.83,0-1.5.67-1.5,1.5v8c0,.83.67,1.5,1.5,1.5Z"/>
  <path class="st0" d="M3.19,16h0c2.57-.18,4.53-.83,6.16-1.47,1.97-.77,3.46-1.92,4.56-3.51l-.73-.36,2.8-1.6.02,3.07-.73-.38c-1.86,2.31-3.69,3.68-7.86,4.25h-.03s-4.19,0-4.19,0h0Z"/>
  <path class="st2" d="M4,14h3.89c.38-.13.76-.27,1.1-.41.44-.17.85-.38,1.24-.59h-6.23c-.55,0-1-.45-1-1V4c0-.55.45-1,1-1h8c.55,0,1,.45,1,1v5.61l1-.57v-5.04c0-1.1-.9-2-2-2H4c-1.1,0-2,.9-2,2v8c0,1.1.9,2,2,2Z"/>
  <path class="st2" d="M5.22,4.5h5.56v1.14h-2.16v5.86h-1.23v-5.86h-2.17v-1.14Z"/>
</svg>