<?xml version="1.0" encoding="UTF-8"?>
<svg id="Ebene_1" xmlns="http://www.w3.org/2000/svg" version="1.1" viewBox="0 0 16 16">
  <!-- Generator: Adobe Illustrator 30.2.1, SVG Export Plug-In . SVG Version: 2.1.1 Build 1)  -->
  <defs>
    <style>
      .st0, .st1 {
        fill: #ced0d6;
      }

      .st2 {
        fill: #57965c;
      }

      .st1 {
        fill-rule: evenodd;
      }
    </style>
  </defs>
  <path class="st1" d="M9.26,7.32c-.1-.06-.15-.17-.12-.28.1-.29.36-.5.67-.53.37-.04.73.19.84.54.1.3.01.62-.21.83-.08.08-.21.07-.3.01l-.89-.57Z"/>
  <path class="st2" d="M3.19,16h0c2.57-.18,4.53-.83,6.16-1.47,1.97-.77,3.46-1.92,4.56-3.51l-.73-.36,2.8-1.6.02,3.07-.73-.38c-1.86,2.31-3.69,3.68-7.86,4.25h-.03s-4.19,0-4.19,0h0Z"/>
  <path class="st0" d="M2.92,12.81c.12-.43.51-.73.95-.73s.83.3.95.73c.09.32.37.54.69.54h1.08c.32,0,.6-.22.69-.54.12-.43.51-.73.95-.73s.84.3.95.72c.06.24.24.42.46.5.76-.36,1.45-.78,2.04-1.29.11-.83.4-1.93,1.19-2.52,3.04-2.27,2.88-4.68,2.64-5.69-.03-.18-.08-.34-.16-.5-.24-.49-.8-1.11-1.62-1.28-.49-.1-1.24-.07-2.05.65-.21.18-.23.5-.05.71.18.21.5.23.71.05.41-.36.81-.5,1.2-.42.43.09.77.43.92.74,0,0,0,0,0,0,0,0,.03.07.07.19.05.25-.02.58-.2.87-.14.23-.54.75-1.35.75-.55,0-1.17-.33-1.9-.71-1.65-.87-3.9-2.05-7.36-.35-.63.31-.94,1.06-.72,1.75h0C.99,7.68.14,9.88.44,12.81c.03.31.29.54.6.54h1.19c.32,0,.6-.22.69-.54ZM1.4,12.35c-.16-2.25.47-3.92,1.9-5.07l.38,1.26c.13.38.42.68.82.83.48.19,1.06.14,1.51-.11.71-.38,1.34-.82,1.92-1.35.21-.18.22-.5.04-.71-.19-.21-.5-.22-.71-.04-.52.47-1.09.87-1.73,1.21-.19.11-.46.12-.67.05-.18-.07-.22-.18-.22-.2l-.58-1.9s0-.02,0-.03l-.11-.35c-.07-.22.02-.45.21-.55,3-1.48,4.83-.52,6.45.34.81.42,1.57.82,2.36.82.51,0,1-.15,1.41-.41-.3.77-.92,1.65-2.1,2.54-1.21.91-1.55,2.54-1.63,3.64h-.55c-.29-.75-1.03-1.26-1.85-1.26s-1.56.51-1.85,1.26h-.66c-.29-.75-1.03-1.26-1.85-1.26s-1.56.51-1.85,1.26h-.62Z"/>
</svg>