<?xml version="1.0" encoding="UTF-8"?>
<svg id="Ebene_1" xmlns="http://www.w3.org/2000/svg" version="1.1" viewBox="0 0 16 16">
  <!-- Generator: Adobe Illustrator 30.2.1, SVG Export Plug-In . SVG Version: 2.1.1 Build 1)  -->
  <defs>
    <style>
      .st0 {
        fill: #208a3c;
      }

      .st1 {
        fill: #161514;
        fill-rule: evenodd;
      }

    </style>
  </defs>
  <path class="st0" d="M3.19,16h0c2.57-.18,4.53-.83,6.16-1.47,1.97-.77,3.46-1.92,4.56-3.51l-.73-.36,2.8-1.6.02,3.07-.73-.38c-1.86,2.31-3.69,3.68-7.86,4.25h-.03s-4.19,0-4.19,0h0Z"/>
  <path class="st1" d="M5.71,14.61c.16-.04.33-.07.48-.1.04-.06.07-.13.07-.2,0-.17,0-.61,0-1.19-1.95.42-2.36-.94-2.36-.94-.32-.81-.78-1.02-.78-1.02-.64-.43.05-.43.05-.43.7.05,1.07.72,1.07.72.62,1.07,1.64.76,2.04.58.06-.45.24-.76.44-.94-1.55-.18-3.19-.78-3.19-3.46,0-.76.27-1.39.72-1.88-.07-.18-.31-.89.07-1.85,0,0,.59-.19,1.92.72.56-.16,1.16-.23,1.75-.24.59,0,1.19.08,1.75.24,1.34-.91,1.92-.72,1.92-.72.38.96.14,1.67.07,1.85.45.49.72,1.11.72,1.88,0,2.69-1.64,3.28-3.19,3.45.25.22.47.64.47,1.3,0,.32,0,.61,0,.88,1.06-.51,1.95-1.15,2.68-1.96-.14-.17-.23-.38-.23-.61-.01-.37.18-.72.5-.9l2.27-1.3c.01-.16.04-.32.04-.49,0-3.86-3.13-7-7-7S1,4.13,1,8c0,3.06,1.97,5.66,4.71,6.61Z"/>
</svg>