<?xml version="1.0" encoding="UTF-8"?>
<svg id="Ebene_1" xmlns="http://www.w3.org/2000/svg" version="1.1" viewBox="0 0 16 16">
  <!-- Generator: Adobe Illustrator 30.2.1, SVG Export Plug-In . SVG Version: 2.1.1 Build 1)  -->
  <defs>
    <style>
      .st0 {
        fill: #548af7;
      }

      .st1 {
        fill: #57965c;
      }
    </style>
  </defs>
  <path class="st1" d="M3.19,16h0c2.57-.18,4.53-.83,6.16-1.47,1.97-.77,3.46-1.92,4.56-3.51l-.73-.36,2.8-1.6.02,3.07-.73-.38c-1.86,2.31-3.69,3.68-7.86,4.25h-.03s-4.19,0-4.19,0h0Z"/>
  <path class="st0" d="M3.74,6.17h0s0,0,0,0c.71-.99,1.98-1.54,2.91-1.44.78.1,1.32.65,1.06,1.77l-1.26,5.69c-.09.42.18.83.61.94.02,0,.04,0,.06.01.45.09.9-.19.99-.62l1.42-6.35c1.31-1.84,4.55-2.15,3.98.33l-.71,3.23,1.97-1.13.46-2.1c.36-1.56,0-3.3-2.06-3.3-1.58,0-2.54.59-3.68,1.56-.2-.87-.8-1.53-2.04-1.56-1.26-.07-2.37.46-3.32,1.21.1-.45-.11-.93-.63-1.03-.45-.09-.9.18-1,.62L.67,12.19c-.1.43.19.86.65.95.45.09.9-.18,1-.62l1.42-6.36Z"/>
</svg>