<?xml version="1.0" encoding="UTF-8"?>
<svg id="Ebene_1" xmlns="http://www.w3.org/2000/svg" version="1.1" viewBox="0 0 16 16">
  <!-- Generator: Adobe Illustrator 30.2.1, SVG Export Plug-In . SVG Version: 2.1.1 Build 1)  -->
  <defs>
    <style>
      .st0 {
        fill: #fff;
      }

      .st1 {
        fill: #c12127;
      }

      .st2 {
        fill: #57965c;
      }
    </style>
  </defs>
  <g>
    <path class="st1" d="M8.99,13.59c.74-.29,1.41-.64,2-1.05.53-.36.18-.55.09-1.16-.08-.83,0-.69-.02-.91-.01-.37,1.04-1.54,1.36-1.72l2.56-.28V1H1v14h2.15c2.44-.18,4.33-.81,5.85-1.41Z"/>
    <path class="st1" d="M13.33,15h1.67v-1.43c-.52.53-1.06,1.02-1.67,1.43Z"/>
  </g>
  <path class="st0" d="M8,5h3v7.54c.52-.36,1-.78,1.42-1.24-.14-.17-.23-.38-.23-.61-.01-.37.18-.72.5-.9l.32-.18V3H3v10h5V5Z"/>
  <path class="st2" d="M3.19,16h0c2.57-.18,4.53-.83,6.16-1.47,1.97-.77,3.46-1.92,4.56-3.51l-.73-.36,2.8-1.6.02,3.07-.73-.38c-1.86,2.31-3.69,3.68-7.86,4.25h-.03s-4.19,0-4.19,0h0Z"/>
</svg>