<?xml version="1.0" encoding="UTF-8"?>
<svg id="Ebene_1" xmlns="http://www.w3.org/2000/svg" xmlns:xlink="http://www.w3.org/1999/xlink" version="1.1" viewBox="0 0 16 16">
  <!-- Generator: Adobe Illustrator 29.7.0, SVG Export Plug-In . SVG Version: 2.1.1 Build 138)  -->
  <defs>
    <style>
      .st0 {
        fill: none;
        stroke: #ced0d6;
        stroke-linecap: round;
      }

      .st1 {
        fill: #fff;
      }

      .st2 {
        fill: url(#Unbenannter_Verlauf_312);
      }

      .st3 {
        fill: #ced0d6;
        fill-rule: evenodd;
      }
    </style>
    <linearGradient id="Unbenannter_Verlauf_312" data-name="Unbenannter Verlauf 312" x1="7.06" y1="14.13" x2="11.06" y2="7.16" gradientUnits="userSpaceOnUse">
      <stop offset=".32" stop-color="#93a3d1"/>
      <stop offset=".57" stop-color="#b8acb5"/>
      <stop offset=".95" stop-color="#f8bc88"/>
    </linearGradient>
  </defs>
  <path class="st0" d="M14.89,2.54c-.36-.76-1.56-1.65-2.89-.48M14.89,2.54c.46.88-.33,2.52-1.93,2.52-2.09,0-4.28-3.46-9.04-1.11-.42.21-.61.7-.46,1.15l.12.36M14.89,2.54s1.34,2.82-2.33,5.56c-1.03.77-1.41,2.29-1.45,3.64,0,.05-.05.1-.1.1h-1.14c-.1,0-.18-.07-.21-.17-.17-.64-.76-1.09-1.44-1.09s-1.26.46-1.43,1.09c-.03.1-.11.17-.21.17h-1.08c-.1,0-.18-.07-.21-.17-.17-.64-.76-1.09-1.43-1.09s-1.26.46-1.43,1.09c-.03.1-.11.17-.21.17h-1.19c-.05,0-.09-.04-.1-.09-.29-2.84.53-4.95,2.64-6.29M3.58,5.47l.58,1.91c.22.64,1.08.74,1.61.44.66-.36,1.26-.78,1.82-1.28"/>
  <path class="st3" d="M9.26,7.32c-.1-.06-.15-.17-.12-.28.1-.29.36-.5.67-.53.37-.04.73.19.84.54.1.3.01.62-.21.83-.08.08-.21.07-.3.01l-.89-.57Z"/>
  <g id="Pfeil">
    <path class="st2" d="M0,16.48l-.03-1c4.02-.29,8.46-1.07,11.16-4.64l-1.03-.5,4.19-2.4.03,4.57-1.06-.55c-2.03,2.45-4.09,3.91-8.6,4.53h-.04s-4.62-.01-4.62-.01Z"/>
    <path class="st1" d="M13.79,8.8l.02,2.89-.69-.36c-1.96,2.45-3.89,4.03-8.54,4.67L0,15.98c4.81-.34,9.26-1.42,11.88-5.33l-.71-.34,2.63-1.51M14.78,7.08l-1.49.85-2.63,1.51-1.64.94,1.31.64C7.73,14.02,3.65,14.72-.07,14.98l.07,2,4.58.02h.07s.07,0,.07,0c4.46-.61,6.67-2.08,8.66-4.4l1.45.75v-1.66s-.03-2.89-.03-2.89v-1.71h-.01Z"/>
  </g>
</svg>