<?xml version="1.0" encoding="UTF-8"?>
<svg id="Ebene_1" xmlns="http://www.w3.org/2000/svg" xmlns:xlink="http://www.w3.org/1999/xlink" version="1.1" viewBox="0 0 16 16">
  <!-- Generator: Adobe Illustrator 29.7.0, SVG Export Plug-In . SVG Version: 2.1.1 Build 138)  -->
  <defs>
    <style>
      .st0 {
        fill: #fff;
      }

      .st1 {
        fill: #3574f0;
      }

      .st2 {
        fill: url(#Unbenannter_Verlauf_312);
      }
    </style>
    <linearGradient id="Unbenannter_Verlauf_312" data-name="Unbenannter Verlauf 312" x1="7.06" y1="14.13" x2="11.06" y2="7.16" gradientUnits="userSpaceOnUse">
      <stop offset=".32" stop-color="#93a3d1"/>
      <stop offset=".57" stop-color="#b8acb5"/>
      <stop offset=".95" stop-color="#f8bc88"/>
    </linearGradient>
  </defs>
  <path class="st1" d="M13.16,2.2c2.06,0,2.42,1.73,2.06,3.3l-1.33,6.01c-.1.43-.54.71-.99.62-.45-.09-.74-.52-.65-.95l1.25-5.68c.57-2.48-2.66-2.17-3.98-.33l-1.42,6.35c-.1.43-.54.71-.99.62-.02,0-.04,0-.06-.01-.43-.11-.7-.52-.61-.94l1.26-5.69c.26-1.12-.28-1.67-1.06-1.77-.93-.1-2.2.45-2.91,1.44h0s0,0,0,0l-1.42,6.36c-.1.43-.54.71-1,.62-.45-.09-.74-.52-.65-.95L2.5,3c.1-.43.54-.71,1-.62.52.1.73.58.63,1.03.95-.75,2.06-1.28,3.32-1.21,1.23.02,1.84.69,2.04,1.56,1.14-.97,2.1-1.56,3.68-1.56Z"/>
  <g id="Pfeil">
    <path class="st2" d="M0,16.48l-.03-1c4.02-.29,8.46-1.07,11.16-4.64l-1.03-.5,4.19-2.4.03,4.57-1.07-.55c-2.03,2.45-4.09,3.91-8.6,4.53h-.04s-4.62-.01-4.62-.01Z"/>
    <path class="st0" d="M13.79,8.8l.02,2.89-.69-.36c-1.96,2.45-3.89,4.03-8.54,4.67L0,15.98c4.81-.34,9.26-1.42,11.88-5.33l-.71-.34,2.63-1.51M14.78,7.08l-1.49.85-2.63,1.51-1.64.94,1.31.64C7.73,14.02,3.65,14.72-.07,14.98l.07,2,4.58.02h.07s.07,0,.07,0c4.46-.61,6.67-2.08,8.66-4.4l1.45.75v-1.66s-.03-2.89-.03-2.89v-1.71h-.01Z"/>
  </g>
</svg>