<svg width="16" height="16" viewBox="0 0 16 16" fill="none"
     xmlns="http://www.w3.org/2000/svg">
	<path fill-rule="evenodd" clip-rule="evenodd"
	      d="M9.68279 6.88122C10.374 7.47941 10.374 8.55145 9.68279 9.14964L4.48401 13.649C3.51245 14.4898 2.0024 13.7997 2.0024 12.5148L2.0024 3.51609C2.0024 2.23119 3.51245 1.54103 4.48402 2.38188L9.68279 6.88122ZM9.02838 8.3935C9.25877 8.1941 9.25877 7.83675 9.02838 7.63736L3.82961 3.13802C3.50575 2.85774 3.0024 3.08779 3.0024 3.51609L3.0024 12.5148C3.0024 12.9431 3.50575 13.1731 3.8296 12.8928L9.02838 8.3935Z"
	      fill="#6C707E"/>
	<path d="M7.85764 2.5L13.3568 7.2593C13.8176 7.65809 13.8176 8.37279 13.3568 8.77158L7.8933 13.5"
	      stroke="#6C707E" stroke-linecap="round"/>
</svg>
