<?xml version="1.0" encoding="UTF-8"?>
<svg xmlns="http://www.w3.org/2000/svg" version="1.1" viewBox="0 0 12.98 13.02">
  <defs>
    <style>
      .st0, .st1, .st2 {
        fill: #ced0d6;
      }

	    .st1 {
	    stroke: #ced0d6;
	    stroke-linecap: round;
	    }

      .st2 {
        fill-rule: evenodd;
      }
    </style>
  </defs>
	<path class="st2"
	      d="M4.5,4.02C2.01,4.02,0,6.03,0,8.52s2.01,4.5,4.5,4.5,4.5-2.01,4.5-4.5-2.01-4.5-4.5-4.5ZM4.5,12.1c-1.98,0-3.58-1.6-3.58-3.58s1.6-3.58,3.58-3.58,3.58,1.6,3.58,3.58-1.6,3.58-3.58,3.58Z"/>
	<path class="st1" d="M4.5,6.72v3.6M2.7,8.52h3.6"/>
	<path class="st0"
	      d="M8.48,0l.02.02C6.54.02,4.88,1.28,4.26,3.03c.08,0,.16-.01.24-.01.25,0,.5.02.75.06.55-1.26,1.79-2.16,3.25-2.16,1.98,0,3.58,1.6,3.58,3.58,0,1.54-.88,2.73-2.14,3.26.03.25.06.5.06.76,0,.07,0,.14-.01.21,1.74-.62,2.99-2.27,2.99-4.23,0-2.49-2.01-4.5-4.5-4.5Z"/>
	<path class="st0"
	      d="M10.31,4.01h-1.3v-1.3c0-.28-.22-.5-.5-.5s-.5.22-.5.5v1.3h-.37c.53.37,1,.84,1.37,1.37v-.37h1.3c.28,0,.5-.22.5-.5s-.22-.5-.5-.5Z"/>
</svg>
