<?xml version="1.0" encoding="UTF-8"?>
<svg xmlns="http://www.w3.org/2000/svg" version="1.1" viewBox="0 0 16 16">
  <defs>
    <style>
      .st0 {
        fill: #834df0;
      }
    </style>
  </defs>
  <path class="st0" d="M6.75,0c.41,0,.75.34.75.75v2.25h3.63c.41,0,.81.15,1.13.41l2.07,1.75c.74.62.83,1.73.21,2.47-.06.07-.13.14-.21.21l-2.07,1.75c-.32.27-.72.41-1.13.41h-3.63v5.25c0,.41-.34.75-.75.75s-.75-.34-.75-.75v-5.25H1.75c-.97,0-1.75-.78-1.75-1.75v-3.5c0-.97.78-1.75,1.75-1.75h4.25V.75c0-.41.34-.75.75-.75ZM11.13,8.5c.06,0,.12-.02.16-.06l2.07-1.75c.1-.09.12-.24.03-.35,0-.01-.02-.02-.03-.03l-2.07-1.75s-.1-.06-.16-.06H1.75c-.14,0-.25.11-.25.25v3.5c0,.14.11.25.25.25h9.38Z"/>
</svg>
