<?xml version="1.0" encoding="UTF-8"?>
<svg id="Ebene_1" xmlns="http://www.w3.org/2000/svg" version="1.1" viewBox="0 0 16 16">
  <defs>
    <style>
      .st0 {
      fill: none;
      }
    </style>
  </defs>
  <path class="st0"
        d="M5.5,14.33V2.94c0-.41.26-.44.6-.44h3.79c.33,0,.6.27.6.6v11.39l-4.99.02v-.18Z"
        stroke-width="1" stroke="#6c707e"/>
  <path class="st0"
        d="M10.49,13.9V1.1c0-.33.27-.6.6-.6h3.79c.33,0,.6.27.6.6v12.79c0,.33-.27.6-.62.62H1.09c-.32-.02-.59-.29-.59-.62v-7.79c0-.33.27-.6.6-.6h3.79c.33,0,.6.27.6.6"
        stroke-width="1" stroke="#6c707e"/>
</svg>
