<?xml version="1.0" encoding="UTF-8"?>
<svg id="Ebene_1" xmlns="http://www.w3.org/2000/svg" version="1.1" viewBox="0 0 20 20">
  <!-- Generator: Adobe Illustrator 30.5.1, SVG Export Plug-In . SVG Version: 2.1.4 Build 3)  -->
  <defs>
    <style>
      .st0 {
      fill: none;
      }
    </style>
  </defs>
  <path class="st0"
        d="M6.91,18.01V3.75c0-.32.32-.53.73-.53h4.67c.41,0,.74.33.74.74v14.26l-6.14.02v-.22h0Z"
        stroke-width="1.5" stroke="#6c707e"/>
  <path class="st0"
        d="M13.06,17.48V1.49c0-.41.33-.74.74-.74h4.67c.41,0,.74.33.74.74v15.98c0,.41-.33.74-.76.77H1.48c-.4-.02-.73-.35-.73-.77V7.65c0-.41.33-.74.74-.74h4.67c.41,0,.74.33.74.74"
        stroke-width="1.5" stroke="#6c707e"/>
</svg>
