<?xml version="1.0" encoding="UTF-8"?>
<svg id="Ebene_1" xmlns="http://www.w3.org/2000/svg" version="1.1"
     viewBox="0 0 13.5 13.5">
	<!-- Generator: Adobe Illustrator 30.5.1, SVG Export Plug-In . SVG Version: 2.1.4 Build 3)  -->
	<defs>
		<style>
			.st0 {
			fill: #fff;
			}

			.st1 {
			fill: #ebecf0;
			}

			.st2 {
			fill: #ffaf0f;
			}

			.st2, .st3 {
			fill-rule: evenodd;
			}

			.st3 {
			fill: #6c707e;
			}
		</style>
	</defs>
	<path class="st1" d="M4,11V3H1v8h3Z"/>
	<path class="st3"
	      d="M5.77,11.44l.25-.44h-1.02V1h3v6.5l.28-.5c.18-.31.43-.56.72-.73v-1.27h3v2.5l1,1.77v-4.26c0-.55-.45-1-1-1h-3V1c0-.55-.45-1-1-1h-3c-.55,0-1,.45-1,1v1H1c-.55,0-1,.45-1,1v8c0,.55.45,1,1,1h4.56c.04-.19.11-.38.21-.56ZM4,11H1V3h3v8Z"/>
	<path class="st1"
	      d="M10,6c.72,0,1.36.37,1.72,1l.28.5v-2.5h-3v1.27c.3-.17.64-.27,1-.27Z"/>
	<polygon class="st1" points="8 7.5 8 1 5 1 5 11 6.02 11 8 7.5"/>
	<path class="st2"
	      d="M6.64,11.93l2.51-4.44c.37-.66,1.32-.66,1.7,0l2.51,4.44c.4.7-.11,1.57-.91,1.57h-4.9c-.8,0-1.31-.87-.91-1.57Z"/>
	<path class="st0"
	      d="M10.5,9c0-.28-.22-.5-.5-.5s-.5.22-.5.5v1.25c0,.28.22.5.5.5s.5-.22.5-.5v-1.25Z"/>
	<path class="st0" d="M10,12.5c.28,0,.5-.22.5-.5s-.22-.5-.5-.5-.5.22-.5.5.22.5.5.5Z"/>
</svg>
