<?xml version="1.0" encoding="UTF-8"?>
<svg id="Ebene_1" xmlns="http://www.w3.org/2000/svg" version="1.1"
     viewBox="0 0 14.03 13.97">
	<!-- Generator: Adobe Illustrator 30.5.1, SVG Export Plug-In . SVG Version: 2.1.4 Build 3)  -->
  <defs>
    <style>
      .st0 {
	    fill: #ebecf0;
      }

	    .st1 {
        fill: #3574f0;
      }

      .st2 {
	    fill: #6c707e;
	    fill-rule: evenodd;
      }
    </style>
  </defs>
	<path class="st0" d="M4.01,10.99V2.99H1.01v8h3Z"/>
	<path class="st0"
	      d="M5.47,9.4l2.54-2.54V.99h-3v10h.13c-.2-.53-.09-1.16.34-1.59h-.01Z"/>
	<path class="st0" d="M9.53,5.97l2.48.02v-.99h-3v1.07c.17-.06.34-.1.52-.1Z"/>
	<path class="st1"
	      d="M14.03,6.47c0-.28-.22-.5-.5-.5s-.5.22-.5.5v2.5c0,.55-.45,1-1,1h-4.29l2.15-2.15c.2-.2.2-.51,0-.71s-.51-.2-.71,0l-3,3c-.2.2-.2.51,0,.71l3,3c.2.2.51.2.71,0,.2-.2.2-.51,0-.71l-2.15-2.15h4.29c1.1,0,2-.9,2-2v-2.5h0Z"/>
	<path class="st2"
	      d="M5.47,11.53c-.16-.16-.26-.34-.34-.54h-.13V.99h3v5.88l.46-.46c.15-.15.34-.27.54-.34v-1.07h3v.99h1v-.99c0-.55-.45-1-1-1h-3V1c0-.55-.45-1-1-1h-3c-.55,0-1,.45-1,1v1H1c-.55,0-1,.45-1,1v8c0,.55.45,1,1,1h4.93l-.46-.46h0ZM1.01,10.99V2.99h3v8H1.01Z"/>
</svg>
