<?xml version="1.0" encoding="UTF-8"?>
<svg id="Ebene_1" xmlns="http://www.w3.org/2000/svg" version="1.1" viewBox="0 0 16 16">
  <!-- Generator: Adobe Illustrator 29.7.0, SVG Export Plug-In . SVG Version: 2.1.1 Build 138)  -->
  <defs>
    <style>
      .st0 {
        fill-rule: evenodd;
      }

      .st0, .st1 {
        fill: #3574f0;
      }

      .st2 {
        fill: #ebecf0;
      }
    </style>
  </defs>
  <path class="st2" d="M6,13V5h-3v8h3Z"/>
  <path class="st2" d="M7.46,11.41l2.54-2.54V3h-3v10h.13c-.2-.53-.09-1.16.34-1.59Z"/>
  <path class="st2" d="M11.52,7.98l2.48.02v-.99h-3v1.07c.17-.06.34-.1.52-.1Z"/>
  <path class="st1" d="M16.02,8.48c0-.28-.22-.5-.5-.5s-.5.22-.5.5v2.5c0,.55-.45,1-1,1h-4.29l2.15-2.15c.2-.2.2-.51,0-.71-.2-.2-.51-.2-.71,0l-3,3c-.2.2-.2.51,0,.71l3,3c.2.2.51.2.71,0,.2-.2.2-.51,0-.71l-2.15-2.15h4.29c1.1,0,2-.9,2-2v-2.5Z"/>
  <path class="st0" d="M7.46,13.54c-.16-.16-.26-.34-.34-.54h-.13V3h3v5.88l.46-.46c.15-.15.34-.27.54-.34v-1.07h3v.99h1s0-.99,0-.99c0-.55-.45-1-1-1h-3v-3c0-.55-.45-1-1-1h-3c-.55,0-1,.45-1,1v1h-3c-.55,0-1,.45-1,1v8c0,.55.45,1,1,1h4.93l-.46-.46ZM3,13V5h3v8h-3Z"/>
</svg>
