<?xml version="1.0" encoding="UTF-8"?>
<svg id="Ebene_1" xmlns="http://www.w3.org/2000/svg" version="1.1"
     viewBox="0 0 13.4 13.4">
	<!-- Generator: Adobe Illustrator 30.5.1, SVG Export Plug-In . SVG Version: 2.1.4 Build 3)  -->
	<defs>
		<style>
			.st0 {
			fill: #3574f0;
			}

			.st0, .st1 {
			fill-rule: evenodd;
			}

			.st2 {
			fill: #ebecf0;
			}

			.st1 {
			fill: #6c707e;
			}
		</style>
	</defs>
	<path class="st2" d="M4,11V3H1v8h3Z"/>
	<path class="st0"
	      d="M7,11h-2V1h3v7.36s.02-.01.02-.02c.09-.7.46-1.3.98-1.73v-1.61h3v1.34c.41.23.76.56,1,.96v-2.3c0-.55-.45-1-1-1h-3V1c0-.55-.45-1-1-1h-3c-.55,0-1,.45-1,1v1H1c-.55,0-1,.45-1,1v8c0,.55.45,1,1,1h6v-1ZM4,11H1V3h3v8Z"/>
	<path class="st2"
	      d="M10.7,6c.47,0,.91.13,1.3.34v-1.34h-3v1.61c.47-.38,1.05-.61,1.7-.61Z"/>
	<path class="st2" d="M7,10.2c0-.77.39-1.45,1-1.84V1h-3v10h2v-.8Z"/>
	<path class="st1"
	      d="M9.2,13.4c-.66,0-1.2-.54-1.2-1.2v-2c0-.59.43-1.09,1-1.18v-.32c0-.94.76-1.7,1.7-1.7s1.7.76,1.7,1.7v.32c.57.1,1,.59,1,1.18v2c0,.66-.54,1.2-1.2,1.2h-3ZM9.2,9.9c-.17,0-.3.13-.3.3v2c0,.17.13.3.3.3h3c.17,0,.3-.13.3-.3v-2c0-.17-.13-.3-.3-.3h-3ZM11.5,9v-.3c0-.44-.36-.8-.8-.8s-.8.36-.8.8v.3h1.6ZM10.7,12.15c-.25,0-.45-.2-.45-.45v-1c0-.25.2-.45.45-.45s.45.2.45.45v1c0,.25-.2.45-.45.45Z"/>
</svg>
