<?xml version="1.0" encoding="UTF-8"?>
<svg id="Ebene_1" xmlns="http://www.w3.org/2000/svg" version="1.1" viewBox="0 0 16 16">
  <!-- Generator: Adobe Illustrator 29.7.0, SVG Export Plug-In . SVG Version: 2.1.1 Build 138)  -->
  <defs>
    <style>
      .st0, .st1 {
        fill: #548af7;
      }

      .st1 {
        fill-rule: evenodd;
      }

      .st2 {
        fill: #43454a;
      }
    </style>
  </defs>
  <path class="st2" d="M6,13V5h-3v8h3Z"/>
  <path class="st1" d="M7.42,13.55c-.16-.16-.27-.35-.34-.55h-.08V3h3v5.85l.42-.42c.17-.17.37-.28.58-.36v-1.07h3v1.01h1v-1.01c0-.55-.45-1-1-1h-3v-3c0-.55-.45-1-1-1h-3c-.55,0-1,.45-1,1v1h-3c-.55,0-1,.45-1,1v8c0,.55.45,1,1,1h4.87l-.45-.45ZM6,13h-3V5h3v8Z"/>
  <g>
    <path class="st2" d="M7.42,11.43l2.58-2.58V3h-3v9.38c.03-.35.15-.69.42-.95Z"/>
    <path class="st2" d="M7,12.6v.4h.08c-.05-.13-.07-.26-.08-.4Z"/>
  </g>
  <path class="st2" d="M11.48,7.99l2.52.02v-1.01h-3v1.07c.15-.05.31-.08.48-.08Z"/>
  <path class="st0" d="M15.98,8.49c0-.28-.22-.5-.5-.5s-.5.22-.5.5v2.5c0,.55-.45,1-1,1h-4.29l2.15-2.15c.2-.2.2-.51,0-.71s-.51-.2-.71,0l-3,3c-.2.2-.2.51,0,.71l3,3c.2.2.51.2.71,0,.2-.2.2-.51,0-.71l-2.15-2.15h4.29c1.1,0,2-.9,2-2v-2.5h0Z"/>
</svg>