<?xml version="1.0" encoding="UTF-8"?>
<svg id="Ebene_1" xmlns="http://www.w3.org/2000/svg" version="1.1" viewBox="0 0 13.94 14">
	<!-- Generator: Adobe Illustrator 30.5.1, SVG Export Plug-In . SVG Version: 2.1.4 Build 3)  -->
  <defs>
    <style>
      .st0 {
        display: none;
	    isolation: isolate;
        opacity: .49;
      }

      .st1 {
	    fill: #ebecf0;
	    }

	    .st2 {
        fill: #6c707e;
	    fill-rule: evenodd;
      }
    </style>
  </defs>
	<path class="st1" d="M4,11V3H1v8h3Z"/>
	<path class="st2"
	      d="M6.94,11h-1.94V1h3v6.45c.13-.68.49-1.28,1-1.71v-.73h3v.2c.38.14.71.35,1,.62v-.83c0-.55-.45-1-1-1h-3V1c0-.55-.45-1-1-1h-3c-.55,0-1,.45-1,1v1H1c-.55,0-1,.45-1,1v8c0,.55.45,1,1,1h5.94s0-1,0-1ZM4,11H1V3h3v8Z"/>
	<path class="st1"
	      d="M6.94,10c0-.74.4-1.39,1-1.73v-.27c0-.19.02-.37.06-.55V1h-3v10h1.94s0-1,0-1Z"/>
	<path class="st0"
	      d="M13.94,8.27v-.27c0-1.65-1.35-3-3-3s-3,1.35-3,3v.27c-.6.35-1,.99-1,1.73v3c0,1.1.9,2,2,2h4c1.1,0,2-.9,2-2v-3c0-.74-.4-1.39-1-1.73Z"/>
  <g>
	  <path class="st1" d="M12,5h-1.06c.37,0,.73.08,1.06.2v-.2Z"/>
	  <path class="st1" d="M10.94,5h-1.94v.73c.53-.45,1.2-.73,1.94-.73Z"/>
  </g>
	<path class="st2"
	      d="M12.94,9v-1c0-1.1-.9-2-2-2s-2,.9-2,2v1c-.55,0-1,.45-1,1v3c0,.55.45,1,1,1h4c.55,0,1-.45,1-1v-3c0-.55-.45-1-1-1ZM9.94,8c0-.55.45-1,1-1s1,.45,1,1v1h-2v-1ZM8.94,13v-3h4v3h-4Z"/>
</svg>
