<?xml version="1.0" encoding="UTF-8"?>
<svg id="Ebene_1" xmlns="http://www.w3.org/2000/svg" version="1.1" viewBox="0 0 16 16">
  <!-- Generator: Adobe Illustrator 29.7.0, SVG Export Plug-In . SVG Version: 2.1.1 Build 138)  -->
  <defs>
    <style>
      .st0 {
        fill: #3574f0;
      }

      .st0, .st1 {
        fill-rule: evenodd;
      }

      .st2 {
        display: none;
        opacity: .49;
      }

      .st3 {
        fill: #ebecf0;
      }

      .st1 {
        fill: #6c707e;
      }
    </style>
  </defs>
  <path class="st3" d="M6,13V5h-3v8h3Z"/>
  <path class="st0" d="M8.94,13h-1.94V3h3v6.45c.13-.68.49-1.28,1-1.71v-.73h3v.2c.38.14.71.35,1,.62v-.83c0-.55-.45-1-1-1h-3v-3c0-.55-.45-1-1-1h-3c-.55,0-1,.45-1,1v1h-3c-.55,0-1,.45-1,1v8c0,.55.45,1,1,1h5.94v-1ZM6,13h-3V5h3v8Z"/>
  <path class="st3" d="M8.94,12c0-.74.4-1.39,1-1.73v-.27c0-.19.02-.37.06-.55V3h-3v10h1.94v-1Z"/>
  <path class="st2" d="M15.94,10.27v-.27c0-1.65-1.35-3-3-3s-3,1.35-3,3v.27c-.6.35-1,.99-1,1.73v3c0,1.1.9,2,2,2h4c1.1,0,2-.9,2-2v-3c0-.74-.4-1.39-1-1.73Z"/>
  <g>
    <path class="st3" d="M14,7h-1.06c.37,0,.73.08,1.06.2v-.2Z"/>
    <path class="st3" d="M12.94,7h-1.94v.73c.53-.45,1.2-.73,1.94-.73Z"/>
  </g>
  <path class="st1" d="M14.94,11v-1c0-1.1-.9-2-2-2s-2,.9-2,2v1c-.55,0-1,.45-1,1v3c0,.55.45,1,1,1h4c.55,0,1-.45,1-1v-3c0-.55-.45-1-1-1ZM11.94,10c0-.55.45-1,1-1s1,.45,1,1v1h-2v-1ZM10.94,15v-3h4v3h-4Z"/>
</svg>
