<?xml version="1.0" encoding="UTF-8"?>
<svg id="Ebene_1" xmlns="http://www.w3.org/2000/svg" version="1.1" viewBox="0 0 16 16">
	<!-- Generator: Adobe Illustrator 30.2.1, SVG Export Plug-In . SVG Version: 2.1.1 Build 1)  -->
	<defs>
		<style>
			.st0 {
			fill: #548af7;
			fill-rule: evenodd;
			}

			.st1 {
			fill: #b589ec;
			}

			.st2 {
			fill: #2f2936;
			}
		</style>
	</defs>
	<path class="st2"
	      d="M11.88,12h-.38c-.83,0-1.5-.67-1.5-1.5s.67-1.5,1.5-1.5h2.91c.05-.33.08-.66.08-1,0-3.59-2.91-6.5-6.5-6.5S1.5,4.41,1.5,8s2.91,6.5,6.5,6.5c.55,0,1.08-.08,1.58-.2l2.3-2.3Z"/>
	<path class="st1"
	      d="M9.44,14.44l.93-.93c-.73.32-1.53.49-2.37.49-3.31,0-6-2.69-6-6s2.69-6,6-6,6,2.69,6,6c0,.34-.04.67-.09,1h1.01c.05-.33.08-.66.08-1,0-3.86-3.14-7-7-7S1,4.14,1,8s3.14,7,7,7c.39,0,.77-.04,1.14-.1.07-.17.17-.32.3-.46Z"/>
	<path class="st0"
	      d="M11,10.5c0-.28.22-.5.5-.5h4c.28,0,.5.22.5.5v4c0,.28-.22.5-.5.5s-.5-.22-.5-.5v-2.79l-4.15,4.15c-.2.2-.51.2-.71,0-.2-.2-.2-.51,0-.71l4.15-4.15h-2.79c-.28,0-.5-.22-.5-.5Z"/>
	<path class="st1"
	      d="M10.69,9.25c.23-.42.36-.93.36-1.5,0-1.63-1.02-2.74-2.48-2.74-.84,0-1.51.37-1.89,1v-.88h-.98v6.88h1v-2.48c.38.61,1.04.97,1.87.97.61,0,1.13-.2,1.54-.55.12-.29.32-.53.57-.69ZM8.36,9.58c-.98,0-1.66-.75-1.66-1.84s.68-1.84,1.66-1.84,1.64.75,1.64,1.84-.67,1.84-1.64,1.84Z"/>
</svg>