<?xml version="1.0" encoding="UTF-8"?>
<svg id="Ebene_1" xmlns="http://www.w3.org/2000/svg" version="1.1" viewBox="0 0 15 15">
	<!-- Generator: Adobe Illustrator 30.5.1, SVG Export Plug-In . SVG Version: 2.1.4 Build 3)  -->
	<defs>
		<style>
			.st0, .st1 {
			fill: #548af7;
			}

			.st1 {
			fill-rule: evenodd;
			}

			.st2 {
			fill: #43454a;
			}

			.st3 {
			display: none;
			fill: #6c707e;
			}

			.st4 {
			fill: #ced0d6;
			}
		</style>
	</defs>
	<path class="st2"
	      d="M7,13.03c-.64-.45-1.06-1.19-1.06-2.03s.42-1.59,1.06-2.04v-.04h.05c.4-.27.88-.42,1.39-.42.39,0,.78.09,1.12.26l1.42-.71c.21-1.16,1.22-2.04,2.44-2.05-.48-3.11-3.17-5.5-6.42-5.5C3.41.5.5,3.41.5,7s2.91,6.5,6.5,6.5v-.47Z"/>
	<path class="st0"
	      d="M6.62,9.29c.46-.48,1.1-.79,1.81-.79.33,0,.64.08.94.2.42-.48.67-1.16.67-1.96,0-1.63-1.02-2.74-2.48-2.74-.84,0-1.51.37-1.89,1v-.88h-.98v6.88h1v-2.48c.22.35.54.6.92.77ZM7.36,4.9c.97,0,1.64.75,1.64,1.84s-.67,1.84-1.64,1.84-1.66-.75-1.66-1.84.68-1.84,1.66-1.84Z"/>
	<path class="st3"
	      d="M14.94,11.7c.34.17-.18-1.19.22-1.19,1.38,0,.78-.63.78-2s-1.12-2.5-2.5-2.5c-1.23,0-2.25.89-2.46,2.05l-1.42.71c-.34-.17-.72-.26-1.12-.26-1.38,0-2.5,1.12-2.5,2.5s1.12,2.5,2.5,2.5c.39,0,.78-.09,1.12-.26l1.42.71c.21,1.17,1.23,2.05,2.46,2.05,1.38,0,2.5-1.12,2.5-2.5l-1-1.8Z"/>
	<path class="st1"
	      d="M13.5,10c.83,0,1.5-.67,1.5-1.5s-.67-1.5-1.5-1.5-1.5.67-1.5,1.5c0,.06,0,.12.01.19l-2.47,1.23c-.27-.26-.64-.42-1.04-.42-.83,0-1.5.67-1.5,1.5s.67,1.5,1.5,1.5c.4,0,.77-.16,1.04-.42l2.47,1.23c0,.06-.01.12-.01.19,0,.83.67,1.5,1.5,1.5s1.5-.67,1.5-1.5-.67-1.5-1.5-1.5c-.4,0-.77.16-1.04.42l-2.47-1.23c0-.06.01-.12.01-.19s0-.12-.01-.19l2.47-1.23c.27.26.64.42,1.04.42ZM9,11c0,.28-.22.5-.5.5s-.5-.22-.5-.5.22-.5.5-.5.5.22.5.5ZM14,8.5c0,.28-.22.5-.5.5s-.5-.22-.5-.5.22-.5.5-.5.5.22.5.5ZM14,13.5c0,.28-.22.5-.5.5s-.5-.22-.5-.5.22-.5.5-.5.5.22.5.5Z"/>
	<path class="st4"
	      d="M7,0C3.14,0,0,3.14,0,7s3.14,7,7,7v-.97s-.04-.02-.05-.03c-3.28-.03-5.95-2.71-5.95-6S3.69,1,7,1c2.99,0,5.47,2.2,5.92,5.06.17-.04.34-.06.52-.06.17,0,.33.02.49.05-.47-3.41-3.39-6.05-6.93-6.05Z"/>
</svg>
