<?xml version="1.0" encoding="UTF-8"?>
<svg id="Ebene_1" xmlns="http://www.w3.org/2000/svg" version="1.1" viewBox="0 0 15 15">
	<!-- Generator: Adobe Illustrator 30.5.1, SVG Export Plug-In . SVG Version: 2.1.4 Build 3)  -->
	<defs>
		<style>
			.st0 {
			fill-rule: evenodd;
			}

			.st0, .st1 {
			fill: #3574f0;
			}

			.st2 {
			fill: #6c707e;
			}

			.st3 {
			fill: #ebecf0;
			}
		</style>
	</defs>
	<path class="st0"
	      d="M13.5,10c.83,0,1.5-.67,1.5-1.5s-.67-1.5-1.5-1.5-1.5.67-1.5,1.5c0,.06,0,.12.01.19l-2.47,1.23c-.27-.26-.64-.42-1.04-.42-.83,0-1.5.67-1.5,1.5s.67,1.5,1.5,1.5c.4,0,.77-.16,1.04-.42l2.47,1.23c0,.06-.01.12-.01.19,0,.83.67,1.5,1.5,1.5s1.5-.67,1.5-1.5-.67-1.5-1.5-1.5c-.4,0-.77.16-1.04.42l-2.47-1.23c0-.06.01-.12.01-.19s0-.12-.01-.19l2.47-1.23c.27.26.64.42,1.04.42ZM9,11c0,.28-.22.5-.5.5s-.5-.22-.5-.5.22-.5.5-.5.5.22.5.5ZM14,8.5c0,.28-.22.5-.5.5s-.5-.22-.5-.5.22-.5.5-.5.5.22.5.5ZM14,13.5c0,.28-.22.5-.5.5s-.5-.22-.5-.5.22-.5.5-.5.5.22.5.5Z"/>
	<path class="st3"
	      d="M13.5,6c.15,0,.29.01.43.04C13.47,2.63,10.54,0,7,0,3.13,0,0,3.13,0,7s3.13,7,7,7v-1c-.61-.46-1-1.18-1-2,0-1.38,1.12-2.5,2.5-2.5.4,0,.78.1,1.12.26l1.42-.71c.21-1.17,1.23-2.05,2.46-2.05Z"/>
	<path class="st1"
	      d="M6.68,9.31c.46-.49,1.1-.81,1.83-.81.31,0,.61.07.89.18.41-.48.66-1.15.66-1.94,0-1.63-1.02-2.74-2.48-2.74-.84,0-1.51.37-1.89,1v-.88h-.98v6.88h1v-2.48c.23.36.57.62.97.79ZM7.36,4.9c.97,0,1.64.75,1.64,1.84s-.67,1.84-1.64,1.84-1.66-.75-1.66-1.84.68-1.84,1.66-1.84Z"/>
	<path class="st2"
	      d="M7,0C3.14,0,0,3.14,0,7s3.14,7,7,7v-1c-3.31,0-6-2.69-6-6S3.7,1,7,1c2.99,0,5.47,2.21,5.92,5.08.19-.04.38-.08.58-.08.15,0,.29.02.43.04-.47-3.41-3.39-6.04-6.93-6.04Z"/>
</svg>
