<?xml version="1.0" encoding="UTF-8"?>
<svg id="Ebene_1" xmlns="http://www.w3.org/2000/svg" version="1.1" viewBox="0 0 16 16">
  <!-- Generator: Adobe Illustrator 30.2.1, SVG Export Plug-In . SVG Version: 2.1.1 Build 1)  -->
  <defs>
    <style>
      .st0 {
        fill: #208a3c;
      }

      .st1 {
        fill: #ebecf0;
      }

      .st2 {
        fill: #6c707e;
        fill-rule: evenodd;
      }
    </style>
  </defs>
  <path class="st1" d="M11,12h-4c-1.66,0-3-1.34-3-3v-2c0-1.66,1.34-3,3-3h4v8Z"/>
  <path class="st1" d="M3,9H1v-2h2v2Z"/>
  <path class="st0" d="M3.19,16h0c2.57-.18,4.53-.83,6.16-1.47,1.97-.77,3.46-1.92,4.56-3.51l-.73-.36,2.8-1.6.02,3.07-.73-.38c-1.86,2.31-3.69,3.68-7.86,4.25h-.03s-4.19,0-4.19,0h0Z"/>
  <path class="st2" d="M7,13h3.24c.66-.37,1.25-.8,1.76-1.29v-.71h.25c-.04-.1-.06-.2-.06-.31,0-.26.09-.5.25-.69h-.44v-4h3.5c.28,0,.5-.22.5-.5s-.22-.5-.5-.5h-3.5v-1c0-.55-.45-1-1-1h-4c-1.86,0-3.43,1.27-3.87,3H1c-.55,0-1,.45-1,1v2c0,.55.45,1,1,1h2.13c.44,1.73,2.01,3,3.87,3ZM4,7c0-1.66,1.34-3,3-3h4v8h-4c-1.66,0-3-1.34-3-3v-2ZM3,9H1v-2h2v2Z"/>
</svg>