<svg width="16" height="16" viewBox="0 0 16 16" fill="none"
     xmlns="http://www.w3.org/2000/svg">
	<path d="M2.5 3.83333L8 1.54167L13.5 3.83333L13.5 9.17871C13.5 10.7502 12.7145 11.9168 11.6339 12.8852C10.8323 13.6036 9.84849 14.226 8.90452 14.8218L8.9021 14.8233C8.59264 15.0186 8.28712 15.2115 8 15.4009C7.71296 15.2115 7.40754 15.0187 7.09817 14.8235L7.09548 14.8218C6.15151 14.226 5.16769 13.6036 4.36607 12.8852C3.28548 11.9168 2.5 10.7502 2.5 9.17871V3.83333Z"
	      fill="#402929" stroke="#DB5C5C"/>
	<path d="M6 5H6.90909V7.57143L9.09091 7.57143V5L10 5V11L9.09091 11V8.42857L6.90909 8.42857V11H6V5Z"
	      fill="#DB5C5C"/>
</svg>
