<svg width="16" height="16" viewBox="0 0 16 16" fill="none"
     xmlns="http://www.w3.org/2000/svg">
	<path fill-rule="evenodd" clip-rule="evenodd"
	      d="M8 1L14 3.5L14 9.17871C14 10.9446 13.1076 12.236 11.9676 13.2576C11.1292 14.009 10.1082 14.6534 9.17138 15.2446C8.86018 15.441 8.55826 15.6316 8.2754 15.8183L8 16L7.7246 15.8183C7.44174 15.6316 7.13982 15.441 6.82862 15.2446C5.8918 14.6534 4.87083 14.009 4.03238 13.2576C2.89245 12.236 2 10.9446 2 9.17871V3.5L8 1Z"
	      fill="#F2FCF3"/>
	<path d="M2.5 3.83333L8 1.54167L13.5 3.83333L13.5 9.17871C13.5 10.7502 12.7145 11.9168 11.6339 12.8852C10.8323 13.6036 9.84849 14.226 8.90452 14.8218L8.9021 14.8233C8.59264 15.0186 8.28712 15.2115 8 15.4009C7.71296 15.2115 7.40754 15.0187 7.09817 14.8235L7.09548 14.8218C6.15151 14.226 5.16769 13.6036 4.36607 12.8852C3.28548 11.9168 2.5 10.7502 2.5 9.17871V3.83333Z"
	      stroke="#208A3C"/>
	<path d="M5.5 8.5L7 10L10.5 6.5" stroke="#208A3C" stroke-linecap="round"
	      stroke-linejoin="round"/>
</svg>
