<svg width="16" height="16" viewBox="0 0 16 16" fill="none"
     xmlns="http://www.w3.org/2000/svg">
	<path fill-rule="evenodd" clip-rule="evenodd"
	      d="M14 3.5L8 1L2 3.5V9.17871C2 10.9446 2.89245 12.236 4.03238 13.2576C4.87083 14.009 5.8918 14.6534 6.82862 15.2446C7.1398 15.441 7.44176 15.6316 7.7246 15.8183L8 16L8.2754 15.8183C8.55826 15.6316 8.86018 15.441 9.17138 15.2446C10.1082 14.6534 11.1292 14.009 11.9676 13.2576C13.1076 12.236 14 10.9446 14 9.17871L14 3.5ZM11.2072 6.50008L7.00008 10.7072L4.79297 8.50008L5.50008 7.79297L7 9.29289L10.5001 5.79297L11.2072 6.50008Z"
	      fill="#55A76A"/>
</svg>
